<svg width="268" height="253" viewBox="0 0 268 253" fill="none" xmlns="http://www.w3.org/2000/svg">
<path d="M0 114.639C0 111.219 1.74821 108.036 4.63462 106.2L68.7803 65.4164C75.4378 61.1836 84.1457 65.9661 84.1457 73.8552V141.088C84.1457 144.545 82.3605 147.757 79.4247 149.581L15.279 189.453C8.61772 193.593 0 188.803 0 180.96L0 114.639Z" fill="#8A63B9"/>
<path d="M183 114.139C183 110.719 184.748 107.536 187.635 105.7L251.78 64.9164C258.438 60.6836 267.146 65.4661 267.146 73.3552V140.588C267.146 144.045 265.361 147.257 262.425 149.081L198.279 188.953C191.618 193.093 183 188.303 183 180.46V114.139Z" fill="#8A63B9"/>
<path d="M175.146 114.139C175.146 110.719 173.398 107.536 170.511 105.7L106.365 64.9164C99.7079 60.6836 91 65.4661 91 73.3552V140.588C91 144.045 92.7852 147.257 95.721 149.081L159.867 188.953C166.528 193.093 175.146 188.303 175.146 180.46V114.139Z" fill="#8A63B9"/>
<path d="M15.4781 215.078C8.6359 211.462 8.31886 201.777 14.9099 197.721L83.0863 155.763C86.362 153.747 90.5036 153.788 93.7382 155.87L154.775 195.139C160.933 199.1 160.885 208.119 154.686 212.015L93.3349 250.574C90.3096 252.476 86.4996 252.618 83.3406 250.949L15.4781 215.078Z" fill="#A57DD5"/>
<path d="M109.5 58.7351C103.283 54.694 103.473 45.5298 109.851 41.7487L177.917 1.39792C181.225 -0.562968 185.364 -0.453497 188.564 1.67949L249.74 42.4633C255.853 46.5385 255.632 55.5933 249.327 59.3652L182.375 99.4229C179.098 101.383 174.992 101.307 171.79 99.2259L109.5 58.7351Z" fill="#9877C0"/>
<ellipse cx="85.5" cy="199.147" rx="12.5" ry="9" fill="white"/>
<ellipse cx="129.5" cy="49.1471" rx="9.5" ry="7" fill="white"/>
<ellipse cx="107.5" cy="88.1471" rx="6.5" ry="9" fill="white"/>
<ellipse cx="107.5" cy="138.147" rx="6.5" ry="9" fill="white"/>
<ellipse cx="107.5" cy="114.147" rx="6.5" ry="9" fill="white"/>
<ellipse cx="158.5" cy="117.147" rx="6.5" ry="9" fill="white"/>
<ellipse cx="158.5" cy="167.147" rx="6.5" ry="9" fill="white"/>
<ellipse cx="158.5" cy="142.147" rx="6.5" ry="9" fill="white"/>
<ellipse cx="20.1108" cy="115.577" rx="9.74421" ry="6.83589" transform="rotate(-32.3049 20.1108 115.577)" fill="white"/>
<ellipse cx="67.8892" cy="141.132" rx="9.74421" ry="6.83589" transform="rotate(-32.3049 67.8892 141.132)" fill="white"/>
<ellipse cx="199.889" cy="169.132" rx="9.74421" ry="6.83589" transform="rotate(-32.3049 199.889 169.132)" fill="white"/>
<ellipse cx="199.889" cy="115.132" rx="9.74421" ry="6.83589" transform="rotate(-32.3049 199.889 115.132)" fill="white"/>
<ellipse cx="226.889" cy="131.132" rx="9.74421" ry="6.83589" transform="rotate(-32.3049 226.889 131.132)" fill="white"/>
<ellipse cx="249.889" cy="84.1324" rx="9.74421" ry="6.83589" transform="rotate(-32.3049 249.889 84.1324)" fill="white"/>
<ellipse cx="252.889" cy="138.132" rx="9.74421" ry="6.83589" transform="rotate(-32.3049 252.889 138.132)" fill="white"/>
<ellipse cx="20.8892" cy="171.132" rx="9.74421" ry="6.83589" transform="rotate(-32.3049 20.8892 171.132)" fill="white"/>
<ellipse cx="66.8892" cy="86.1324" rx="9.74421" ry="6.83589" transform="rotate(-32.3049 66.8892 86.1324)" fill="white"/>
<ellipse cx="178.5" cy="49.1471" rx="9.5" ry="7" fill="white"/>
<ellipse cx="224.5" cy="49.1471" rx="9.5" ry="7" fill="white"/>
<line x1="130" y1="48.6471" x2="225" y2="48.6471" stroke="white" stroke-width="3"/>
<line x1="197.744" y1="113.845" x2="225.744" y2="129.845" stroke="white" stroke-width="3"/>
<line x1="252.5" y1="84.1471" x2="252.5" y2="138.147" stroke="white" stroke-width="3"/>
<line x1="198.5" y1="115.147" x2="198.5" y2="169.147" stroke="white" stroke-width="3"/>
<line x1="251.311" y1="84.8755" x2="226.311" y2="129.876" stroke="white" stroke-width="3"/>
<line x1="106.739" y1="86.8417" x2="159.739" y2="116.842" stroke="white" stroke-width="3"/>
<line x1="107.5" y1="88.1471" x2="107.5" y2="141.147" stroke="white" stroke-width="3"/>
<line x1="158.243" y1="143.442" x2="105.243" y2="112.442" stroke="white" stroke-width="3"/>
<line x1="19.6808" y1="170.433" x2="65.6808" y2="85.4332" stroke="white" stroke-width="3"/>
<line x1="20.1929" y1="169.883" x2="67.1929" y2="139.883" stroke="white" stroke-width="3"/>
<line x1="20.6949" y1="116.818" x2="64.6949" y2="139.818" stroke="white" stroke-width="3"/>
</svg>
